<?xml version="1.0" standalone="no"?>
<!DOCTYPE svg PUBLIC "-//W3C//DTD SVG 20010904//EN"
 "http://www.w3.org/TR/2001/REC-SVG-20010904/DTD/svg10.dtd">
<svg version="1.0" xmlns="http://www.w3.org/2000/svg"
 width="256.000000pt" height="256.000000pt" viewBox="0 0 256.000000 256.000000"
 preserveAspectRatio="xMidYMid meet">
<metadata>
Created by potrace 1.11, written by Peter Selinger 2001-2013
</metadata>
<g transform="translate(0.000000,256.000000) scale(0.100000,-0.100000)"
fill="#000000" stroke="none">
<path d="M735 1540 c-37 -41 24 -97 63 -58 18 18 14 56 -7 68 -27 14 -35 13
-56 -10z"/>
<path d="M530 1045 l0 -325 393 1 c331 0 386 2 352 13 -105 33 -197 113 -241
209 -24 53 -28 75 -29 152 0 76 4 98 26 145 14 31 41 73 59 93 l32 37 -296 0
-296 0 0 -325z"/>
<path d="M1658 1333 c119 -151 113 -352 -14 -493 -45 -50 -90 -78 -162 -101
l-57 -18 303 0 302 -1 0 325 0 325 -201 0 -201 0 30 -37z"/>
<path d="M1371 1086 l-194 -194 54 -31 c65 -37 103 -45 174 -38 70 7 124 36
174 93 50 58 76 135 68 206 -6 48 -53 149 -72 155 -6 2 -97 -84 -204 -191z"/>
</g>
</svg>
